# xmcd CD database file
#
# Track frame offsets:
#	150
#	21348
#	42211
#	61746
#
# Disc length: 1112 seconds
#
# Revision: 3
# Processed by: cddbd v1.5.2PL0 Copyright (c) Steve Scherf et al.
# Submitted via: CDex 1.70beta2
#
DISCID=2a045604
DTITLE=NEWS - 恋のABO
DYEAR=2009
DGENRE=J-POP
TTITLE0=恋のABO
TTITLE1=ラビリンス
TTITLE2=OPEN YOUR EYES
TTITLE3=Share
EXTD=YEAR: 2009
EXTT0=
EXTT1=
EXTT2=
EXTT3=
PLAYORDER=
